<?xml version="1.0" encoding="UTF-8"?>
<svg id="Layer_1" data-name="Layer 1" xmlns="http://www.w3.org/2000/svg" viewBox="0 0 2500 2500">
  <defs>
    <style>
      .cls-1 {
        fill: none;
        stroke: #e5e5e4;
        stroke-miterlimit: 10;
        stroke-width: 60px;
      }
    </style>
  </defs>
  <path class="cls-1" d="M1949.56,500.97c-.61-18.51-1.22-37.02-1.83-55.53-215.33,7.81-430.66,15.62-646,23.43.05,17.94.09,35.89.14,53.83-34.58,1.16-69.16,2.32-103.74,3.48.05-17.85.09-35.71.14-53.56-215.33,7.81-430.66,15.62-646,23.43-.61,17.29-1.22,34.58-1.83,51.87-17.29.58-34.58,1.16-51.87,1.74-17.64,465.15-35.28,930.31-52.92,1395.46,18.51.64,37.02,1.28,55.52,1.91-.61,17.29-1.22,34.58-1.83,51.87,380.26,13.99,760.52,27.98,1140.79,41.97,120.17,4.42,240.35,8.84,360.52,13.27-.61-18.51-1.22-37.02-1.83-55.53,18.51.64,37.02,1.28,55.53,1.91-13.4-380.26-26.81-760.52-40.21-1140.79-4.24-120.17-8.47-240.35-12.71-360.52-17.29.58-34.58,1.16-51.87,1.74Z"/>
  <path class="cls-1" d="M550.44,547.92c-34.58,1.16-69.16,2.32-103.74,3.48,1.4-34.4,2.8-68.8,4.19-103.2,34.4-1.34,68.8-2.68,103.2-4.02-1.22,34.58-2.44,69.16-3.65,103.74Z"/>
  <path class="cls-1" d="M497.52,2050.78c-37.2-1.46-74.39-2.91-111.59-4.37,1.4-34.4,2.8-68.8,4.2-103.2,37.02,1.28,74.03,2.55,111.05,3.83-1.22,34.58-2.44,69.16-3.65,103.74Z"/>
  <path class="cls-1" d="M2053.3,497.49c-34.58,1.16-69.16,2.32-103.74,3.48-1.22-37.02-2.44-74.03-3.65-111.05,34.4-1.34,68.8-2.68,103.2-4.02,1.4,37.2,2.8,74.39,4.19,111.59Z"/>
  <path class="cls-1" d="M2114.07,2114.04c-37.2-1.46-74.39-2.91-111.59-4.37-1.22-37.02-2.44-74.03-3.65-111.05,37.02,1.28,74.03,2.55,111.05,3.82,1.4,37.2,2.8,74.39,4.19,111.59Z"/>
  <path class="cls-1" d="M1301.87,522.7c-34.58,1.16-69.16,2.32-103.74,3.48.09-35.71.18-71.42.27-107.13,34.4-1.34,68.8-2.68,103.2-4.02.09,35.89.18,71.78.27,107.67Z"/>
</svg>