<?xml version="1.0" encoding="UTF-8"?>
<svg id="Layer_1" data-name="Layer 1" xmlns="http://www.w3.org/2000/svg" viewBox="0 0 1800 580.11">
  <defs>
    <style>
      .cls-1 {
        fill: #fff;
      }
    </style>
  </defs>
  <g>
    <path class="cls-1" d="M368.76,355.02c17.44,5.37,31.13,17.86,31.13,37.24v19.5c0,10.97-4,21.01-11.76,28.72,7.75,7.82,11.76,17.74,11.76,28.72v19.5c0,19.5-13.69,31.99-31.13,37.24-5.94,1.87-12.4,2.8-18.86,2.8s-13.05-.82-18.99-2.68c-17.18-5.25-30.49-17.63-30.49-37.36v-22.76c0-2.92,2.58-5.25,5.68-5.25h19.25c3.23,0,5.68,2.33,5.68,5.25v22.76c0,5.6,4.26,9.22,9.69,10.97,2.84.82,6.07,1.28,9.17,1.28s6.2-.47,9.17-1.4c5.68-1.75,10.08-5.37,10.08-10.86v-19.5c0-4.44-1.55-8.17-4.52-10.62-2.07-1.63-4.78-2.92-8.4-3.62-3.49-.58-6.07-3.39-6.07-6.65v-15.53c0-3.27,2.58-6.07,6.07-6.77,3.62-.58,6.33-1.87,8.4-3.62,2.97-2.45,4.52-6.19,4.52-10.62v-19.5c0-5.37-4.39-9.11-10.08-10.86-2.97-.82-6.07-1.28-9.17-1.28s-6.33.35-9.17,1.28c-5.43,1.63-9.69,5.25-9.69,10.86v4.79c0,1.4-.52,2.69-1.55,3.74-1.16.93-2.58,1.4-4.13,1.4h-19.25c-1.55,0-2.84-.47-4-1.4-1.03-1.05-1.68-2.33-1.68-3.74v-4.79c0-19.61,13.31-31.99,30.49-37.24,5.94-1.87,12.4-2.68,18.99-2.68s12.92.82,18.86,2.68Z"/>
    <path class="cls-1" d="M469.06,351.17c13.82,0,26.35,5.14,35.4,13.31,9.17,8.29,14.73,19.61,14.73,31.99v87.09c0,12.49-5.55,23.82-14.73,31.99-9.04,8.17-21.57,13.31-35.4,13.31h-40.95c-2.33,0-4.78-.82-6.46-2.45-1.81-1.52-2.71-3.74-2.71-5.95v-160.87c0-2.22.9-4.32,2.71-5.95,1.68-1.52,4.13-2.45,6.46-2.45h40.95ZM449.94,387.48v105.07c0,4.67,4.13,8.41,9.17,8.41h9.95c5.3,0,10.08-1.99,13.56-5.14,3.49-3.15,5.68-7.47,5.68-12.26v-87.09c0-4.79-2.2-8.99-5.68-12.26-3.49-3.15-8.27-5.02-13.56-5.02h-9.95c-5.04,0-9.17,3.74-9.17,8.29Z"/>
    <path class="cls-1" d="M697.6,363.43c9.3,7.82,15.24,18.56,15.24,30.47,0,4.32-3.88,7.7-8.66,7.7h-13.82c-4.78,0-8.53-3.39-8.53-7.7,0-3.85-1.94-7.47-5.17-10.16-3.49-2.92-8.4-4.67-14.08-4.67s-10.46,1.75-13.95,4.67c-3.23,2.69-5.17,6.3-5.17,10.16,0,13.42,14.6,24.52,29.2,35.61,20.02,15.29,40.18,30.47,40.18,56.62,0,11.91-5.94,22.76-15.24,30.47-9.04,7.59-21.45,12.26-35.01,12.26s-25.84-4.67-34.88-12.26c-9.43-7.71-15.24-18.56-15.24-30.47,0-1.98.9-3.97,2.58-5.49,1.55-1.4,3.75-2.22,5.94-2.22h13.95c2.2,0,4.39.82,5.94,2.22,1.68,1.52,2.58,3.5,2.58,5.49,0,3.97,1.94,7.59,5.17,10.27,3.49,2.8,8.4,4.67,13.95,4.67s10.59-1.87,14.08-4.67c3.23-2.68,5.17-6.3,5.17-10.27,0-13.31-14.6-24.4-29.2-35.49-20.02-15.29-40.18-30.47-40.18-56.74,0-11.91,5.81-22.65,15.24-30.47,9.04-7.47,21.45-12.26,34.88-12.26s25.97,4.79,35.01,12.26Z"/>
    <path class="cls-1" d="M813.21,364.48c9.04,8.29,14.73,19.61,14.73,31.99v87.09c0,12.49-5.68,23.82-14.73,31.99-9.04,8.17-21.57,13.31-35.4,13.31s-26.35-5.14-35.53-13.31c-9.04-8.17-14.6-19.5-14.6-31.99v-87.09c0-12.37,5.55-23.7,14.6-31.99,9.17-8.17,21.7-13.31,35.53-13.31s26.35,5.14,35.4,13.31ZM764.25,384.21c-3.49,3.27-5.68,7.47-5.68,12.26v87.09c0,4.79,2.2,9.11,5.68,12.26,3.49,3.15,8.27,5.14,13.56,5.14s9.95-1.99,13.56-5.14c3.36-3.15,5.55-7.47,5.55-12.26v-87.09c0-4.79-2.2-8.99-5.55-12.26-3.62-3.15-8.27-5.02-13.56-5.02s-10.08,1.87-13.56,5.02Z"/>
    <path class="cls-1" d="M872.3,350.35c1.94,0,4,.7,5.43,2.1,1.55,1.28,2.33,3.15,2.33,5.02v125.85c0,4.79,2.2,9.22,5.68,12.37,3.36,3.15,8.27,5.14,13.44,5.14s10.08-1.99,13.56-5.14c3.49-3.15,5.68-7.59,5.68-12.37v-125.85c0-1.87.78-3.74,2.33-5.02,1.42-1.4,3.36-2.1,5.43-2.1h15.37c2.07,0,4.13.7,5.55,2.1,1.42,1.28,2.2,3.15,2.2,5.02v125.85c0,12.61-5.55,23.93-14.73,32.22-8.91,8.17-21.57,13.31-35.4,13.31s-26.35-5.14-35.4-13.31c-9.04-8.29-14.6-19.61-14.6-32.22v-125.85c0-1.87.77-3.74,2.2-5.02,1.42-1.4,3.49-2.1,5.56-2.1h15.37Z"/>
    <path class="cls-1" d="M1003.63,351.17c3.62,0,6.85,2.1,8.01,5.25,5.68,15.06,22.22,58.72,30.1,79.38.26.82,1.29,1.4,2.33,1.28,1.03-.23,1.81-1.05,1.81-1.98v-76.23c0-4.2,3.88-7.7,8.53-7.7h13.95c4.65,0,8.53,3.5,8.53,7.7v160.17c0,2.57-1.16,5.14-3.23,7-1.94,1.75-4.78,2.8-7.62,2.8h-12.4c-4.65,0-8.78-2.68-10.33-6.65-6.07-16.23-21.83-58.14-29.45-78.22-.39-.82-1.29-1.4-2.33-1.28-1.03.23-1.81,1.05-1.81,1.98v76.47c0,2.1-.9,3.97-2.58,5.49-1.55,1.4-3.75,2.22-5.94,2.22h-13.95c-4.78,0-8.53-3.39-8.53-7.7v-162.27c0-4.2,3.75-7.7,8.53-7.7h16.41Z"/>
    <path class="cls-1" d="M1150.76,351.17c13.82,0,26.35,5.14,35.4,13.31,9.17,8.29,14.73,19.61,14.73,31.99v87.09c0,12.49-5.55,23.82-14.73,31.99-9.04,8.17-21.57,13.31-35.4,13.31h-40.95c-2.33,0-4.78-.82-6.46-2.45-1.81-1.52-2.71-3.74-2.71-5.95v-160.87c0-2.22.9-4.32,2.71-5.95,1.68-1.52,4.13-2.45,6.46-2.45h40.95ZM1131.64,387.48v105.07c0,4.67,4.13,8.41,9.17,8.41h9.95c5.3,0,10.08-1.99,13.56-5.14,3.49-3.15,5.68-7.47,5.68-12.26v-87.09c0-4.79-2.2-8.99-5.68-12.26-3.49-3.15-8.27-5.02-13.56-5.02h-9.95c-5.04,0-9.17,3.74-9.17,8.29Z"/>
    <path class="cls-1" d="M1327.42,351.17h57.88c2.45,0,4.91.93,6.59,2.45,1.68,1.63,2.71,3.74,2.71,5.95v11.32c0,2.22-1.03,4.44-2.71,5.95-1.68,1.52-4.13,2.45-6.59,2.45h-57.88v37.94c0,4.55,4.13,8.41,9.3,8.41h28.55c5.17,0,9.3,3.74,9.3,8.29v11.44c0,4.55-4.13,8.29-9.3,8.29h-28.55c-5.17,0-9.3,3.85-9.3,8.41v58.37c0,4.67-4.13,8.41-9.3,8.41h-12.4c-5.17,0-9.3-3.74-9.3-8.41v-160.87c0-2.22,1.03-4.32,2.71-5.95,1.68-1.52,4.13-2.45,6.59-2.45h21.7Z"/>
    <path class="cls-1" d="M1428,351.17c2.2,0,4.13,1.28,4.78,3.15,3.62,9.34,13.69,36.07,16.54,43.31.13.23.39.47.65.47.39,0,.65-.23.78-.47,2.84-7.24,12.92-33.97,16.54-43.31.65-1.87,2.58-3.15,4.78-3.15h22.35c1.68,0,3.23.82,4.26,1.98.9,1.28,1.16,2.8.65,4.32-7.49,19.5-29.97,78.22-31.52,82.3v.47c1.55,4.09,24.03,62.92,31.52,82.42.52,1.4.26,3.04-.65,4.2-1.03,1.28-2.58,1.98-4.26,1.98h-22.35c-2.2,0-4.13-1.28-4.78-3.15-3.62-9.22-13.69-35.96-16.54-43.19-.13-.23-.39-.47-.78-.47-.26,0-.52.23-.65.47-2.84,7.24-12.92,33.97-16.54,43.19-.65,1.87-2.58,3.15-4.78,3.15h-22.22c-1.81,0-3.36-.7-4.26-1.98-1.03-1.17-1.29-2.8-.78-4.2,7.49-19.5,29.97-78.33,31.52-82.42v-.47c-1.55-4.09-24.03-62.81-31.52-82.3-.52-1.52-.26-3.04.78-4.32.9-1.17,2.45-1.98,4.26-1.98h22.22Z"/>
  </g>
  <g>
    <circle class="cls-1" cx="862.42" cy="75.77" r="24.51"/>
    <circle class="cls-1" cx="937.71" cy="75.77" r="24.51"/>
    <circle class="cls-1" cx="862.42" cy="161.16" r="24.51"/>
    <circle class="cls-1" cx="1012.87" cy="161.16" r="24.51"/>
    <circle class="cls-1" cx="787.13" cy="241.61" r="24.51"/>
    <circle class="cls-1" cx="862.42" cy="241.61" r="24.51"/>
    <circle class="cls-1" cx="788.62" cy="74.16" r="9"/>
    <circle class="cls-1" cx="1012.87" cy="74.16" r="9"/>
    <circle class="cls-1" cx="937.71" cy="158.24" r="9"/>
    <circle class="cls-1" cx="787.13" cy="158.24" r="9"/>
    <circle class="cls-1" cx="937.71" cy="241.61" r="9"/>
    <circle class="cls-1" cx="1012.87" cy="241.61" r="9"/>
  </g>
</svg>